<svg enable-background="new 0 0 64 48" viewBox="0 0 64 48" xmlns="http://www.w3.org/2000/svg"><path d="m4.5.5h55c2.209 0 4 1.791 4 4v39c0 2.209-1.791 4-4 4h-55c-2.209 0-4-1.791-4-4v-39c0-2.209 1.791-4 4-4z" fill="#fff" stroke="#ccc"/><path d="m14 14h-6c-1.105 0-2-.895-2-2v-4c0-1.105.895-2 2-2h6c1.105 0 2 .895 2 2v4c0 1.105-.895 2-2 2z" fill="#106ebe"/><path d="m34 36h-26c-1.105 0-2-.895-2-2v-14c0-1.105.895-2 2-2h26c1.105 0 2 .895 2 2v14c0 1.105-.895 2-2 2z" fill="#c4c4c4"/><path d="m24 14h29c2.209 0 4-1.791 4-4s-1.791-4-4-4h-29c-2.209 0-4 1.791-4 4s1.791 4 4 4zm31 4h-14c-1.105 0-2 .895-2 2s.895 2 2 2h14c1.105 0 2-.895 2-2s-.895-2-2-2zm0 7h-14c-1.105 0-2 .895-2 2s.895 2 2 2h14c1.105 0 2-.895 2-2s-.895-2-2-2zm0 7h-14c-1.105 0-2 .895-2 2s.895 2 2 2h14c1.105 0 2-.895 2-2s-.895-2-2-2zm0 7h-47c-1.105 0-2 .895-2 2s.895 2 2 2h47c1.105 0 2-.895 2-2s-.895-2-2-2z" fill="#ddd"/></svg>