<svg focusable="false" xmlns="http://www.w3.org/2000/svg" fill="#767676" viewBox="0 0 16 16" enable-background="new 0 0 16 16">
  <path fill="none" d="M0 0h16v16h-16v-16z"/>
  <path d="M12 4c-.3 0-.5.1-.7.3s-.3.4-.3.7.1.5.3.7.4.3.7.3.5-.1.7-.3.3-.4.3-.7-.1-.5-.3-.7-.4-.3-.7-.3zm1.5-3h-11c-1.4 0-2.5 1.1-2.5 2.5v9c0 1.4 1.1 2.5 2.5 2.5h11c1.4 0 2.5-1.1 2.5-2.5v-9c0-1.4-1.1-2.5-2.5-2.5zm.5 10l-2.3-2.3c-.4-.4-1-.4-1.4 0l-1.3 1.3-3.3-3.3c-.4-.4-1-.4-1.4 0l-2.3 2.3v-5.5c0-.3.2-.5.5-.5h11c.3 0 .5.2.5.5v7.5z"/>
</svg>